<svg width="72" height="89" viewBox="0 0 72 89" fill="none" xmlns="http://www.w3.org/2000/svg">
<path fill-rule="evenodd" clip-rule="evenodd" d="M52.1634 0.0602572C55.2566 0.433931 58.1505 2.17775 61.8914 5.93526C66.8696 10.9342 70.1663 17.1123 71.5572 24.0377C71.8479 25.5075 71.9309 26.4375 71.9807 29.3273C72.0513 32.5949 71.9392 33.9443 71.4576 35.5843C71.0756 36.9129 70.5898 37.7308 69.6847 38.5986C68.4765 39.757 67.8993 39.9397 68.4349 38.993C68.709 38.499 69.0785 36.9586 69.3733 35.1234C69.6266 33.4793 69.6349 28.4595 69.3733 26.6867C68.8294 22.8876 67.8827 19.6533 66.1763 15.8708C64.4324 11.9597 62.045 8.85408 58.0841 5.32907C57.3201 4.644 56.3112 3.83853 55.8586 3.52298C51.6568 0.732871 46.7865 0.791001 42.8588 3.70567C38.686 6.81132 35.4724 13.3215 33.5376 22.5721C33.2968 23.7305 32.9231 25.8189 32.9231 26.0099C32.9231 26.0805 33.2469 26.3545 33.6497 26.6161C35.4724 27.7952 37.6314 29.7425 38.8895 31.3451C42.3066 35.7005 44.1999 40.9486 44.6026 47.218C44.8434 50.8967 44.0587 53.6079 42.2235 55.4431C41.0859 56.5807 40.2887 56.9461 39.0182 56.8755C38.2833 56.834 38.0715 56.7841 37.4072 56.4437C36.4689 55.9704 35.2191 54.8203 34.4137 53.7034C32.5785 51.1541 31.4907 47.6748 31.1087 43.1325C30.9592 41.3887 31.0381 32.2461 31.2083 30.494C31.2789 29.8587 31.3412 29.0242 31.3412 28.6381L31.362 27.9322L30.6063 27.488C23.5023 23.2447 19.1759 27.3676 18.6112 38.8975C18.5116 40.9528 18.6112 44.6646 18.7815 44.8058C18.823 44.8348 19.2548 45.167 19.7281 45.5407C21.4927 46.89 23.0455 48.8373 24.0337 50.9548C24.6482 52.2461 24.9098 53.0017 25.2212 54.3802C25.6364 56.2153 25.4828 57.4235 24.6773 58.6733C23.9631 59.7735 22.5224 60.9319 21.8664 60.9319C21.3931 60.9319 20.8284 60.3756 20.1724 59.2795C18.6403 56.6803 17.6438 53.2633 17.0169 48.5342C16.9463 47.9903 16.938 47.9779 16.2405 47.4962C15.846 47.2222 15.0322 46.7613 14.426 46.4665C11.1792 44.893 8.24791 44.7144 6.35461 45.9725C5.93941 46.2465 5.71936 46.5081 5.34568 47.1433C4.03366 49.3688 3.03718 52.3457 2.56385 55.3891C2.36041 56.7302 2.39362 61.235 2.61367 62.4432C3.63091 67.9072 5.93941 73.3795 9.10321 77.8345C9.95022 79.0344 10.6561 79.9105 10.7059 79.8524C10.7349 79.8233 10.6768 79.379 10.5855 78.8642C10.3447 77.5729 10.3239 75.1358 10.5564 74.6417C10.7682 74.1767 12.238 72.6238 12.6947 72.3747C13.2095 72.1007 13.3299 72.2045 13.4088 72.9477C13.4379 73.3006 13.5583 73.9068 13.6704 74.2888C13.9029 75.0859 13.9237 75.5468 13.7617 76.0035C13.6621 76.2651 13.6912 76.5183 13.9237 77.5273C14.2475 78.9265 14.862 80.7616 15.3063 81.6377C15.4682 81.9699 15.8626 82.6259 16.1533 83.0784C16.5768 83.722 16.7802 83.9254 17.0501 84.0168C17.5359 84.1787 17.9054 84.5025 17.9054 84.7641C17.9054 85.3288 16.2239 87.2553 14.9409 88.1604C14.2641 88.6462 13.9444 88.7541 13.824 88.5632C13.7534 88.4303 13.1472 88.1604 9.63051 86.6366C6.45425 85.254 4.48207 84.3572 3.36104 83.7552C2.72579 83.423 2.67596 83.3732 2.73409 83.1283C2.83373 82.7255 3.3984 82.0197 4.33674 81.1229C5.34567 80.1471 5.89789 79.8233 6.30063 79.9645C6.56221 80.0558 6.50407 79.9354 5.67368 78.5819C2.75069 73.8445 0.915519 69.1279 0.188924 64.4611C-0.0643471 62.8169 -0.064339 59.0179 0.197236 57.4069C0.944591 52.7111 2.78806 48.5176 5.25848 45.9268C6.3463 44.7892 7.23483 44.1207 8.43475 43.5602C9.84642 42.9042 10.5398 42.7547 12.1549 42.7547C13.6164 42.7547 14.5631 42.9374 15.9249 43.4398C16.7428 43.7512 16.7221 43.7512 16.6515 43.5187C16.5519 43.228 16.7719 38.5903 16.9421 37.299C17.5276 32.8648 18.9766 29.5972 21.4678 27.1102C23.2116 25.3746 24.8434 24.4986 26.7782 24.2495C28.1691 24.0792 29.8216 24.4197 31.171 25.1546C31.4824 25.3165 31.7564 25.4452 31.7647 25.4286C31.7855 25.4203 31.9349 24.673 32.1093 23.7969C33.1764 18.3246 34.8621 13.6454 37.1498 9.78824C39.5704 5.73597 42.099 3.10778 45.1341 1.52174C47.4218 0.334281 49.9711 -0.20132 52.1675 0.0685572L52.1634 0.0602572ZM32.4705 29.7508C32.0387 35.659 31.9349 38.6692 32.0969 41.2226C32.4083 46.0887 33.2262 49.0449 35.0115 51.7561C36.4315 53.911 38.4867 55.2853 40.3012 55.2853C41.418 55.2853 41.7211 55.1649 41.9121 54.65C42.456 53.1802 42.6263 51.8973 42.5557 49.7009C42.4934 47.6665 42.2318 46.0015 41.4886 43.037C40.8243 40.3673 40.3178 38.9349 39.3628 36.9876C37.8307 33.8612 35.9167 31.4323 33.4462 29.4685C33.031 29.1363 32.6615 28.8747 32.62 28.8747C32.5702 28.8747 32.5079 29.2692 32.4705 29.7508ZM19.9108 51.9762C20.434 53.9401 21.09 55.4348 21.9162 56.5931C22.5224 57.4609 22.5515 57.2367 22.0283 55.6673C21.4636 53.965 19.9316 50.9008 19.7406 51.0918C19.7115 51.1209 19.7904 51.5153 19.9108 51.9803V51.9762Z" fill="#0F2742"/>
</svg>
